<?xml version="1.0" encoding="UTF-8" standalone="no"?>
<svg
   viewBox="0 0 81.9 71.52"
   version="1.1"
   id="svg31"
   sodipodi:docname="logo.svg"
   inkscape:version="1.2.1 (9c6d41e, 2022-07-14)"
   xmlns:inkscape="http://www.inkscape.org/namespaces/inkscape"
   xmlns:sodipodi="http://sodipodi.sourceforge.net/DTD/sodipodi-0.dtd"
   xmlns="http://www.w3.org/2000/svg"
   xmlns:svg="http://www.w3.org/2000/svg">
  <sodipodi:namedview
     id="namedview33"
     pagecolor="#ffffff"
     bordercolor="#000000"
     borderopacity="0.25"
     inkscape:showpageshadow="2"
     inkscape:pageopacity="0.0"
     inkscape:pagecheckerboard="0"
     inkscape:deskcolor="#d1d1d1"
     showgrid="false"
     inkscape:zoom="2.3996293"
     inkscape:cx="35.422138"
     inkscape:cy="44.17349"
     inkscape:window-width="1309"
     inkscape:window-height="456"
     inkscape:window-x="0"
     inkscape:window-y="25"
     inkscape:window-maximized="0"
     inkscape:current-layer="svg31" />
  <defs
     id="defs9">
    <style
       id="style2">.cls-1{fill:#84aff1;}.cls-2{fill:#3865ab;}.cls-3{fill:url(#linear-gradient);}</style>
    <linearGradient
       id="linear-gradient"
       x1="42.95"
       y1="16.88"
       x2="81.9"
       y2="16.88"
       gradientUnits="userSpaceOnUse">
      <stop
         offset="0"
         stop-color="#f2cc0c"
         id="stop4" />
      <stop
         offset="1"
         stop-color="#ff9830"
         id="stop6" />
    </linearGradient>
  </defs>
  <rect
     style="fill:#f9f9f9;fill-rule:evenodd;stroke-width:0.94917"
     id="rect225"
     width="69.594078"
     height="60.426003"
     x="6.667697"
     y="7.5011587" />
  <g
     id="Layer_2"
     data-name="Layer 2"
     transform="translate(115.01777,-11.251738)">
    <g
       id="Layer_1-2"
       data-name="Layer 1">
      <path
         class="cls-2"
         d="m -38.684765,14.423061 h -68.659045 a 3.9233741,3.9750287 0 0 0 -3.92338,3.975029 v 59.148426 a 3.9233741,3.9750287 0 0 0 3.92338,3.975029 h 68.659045 a 3.9233741,3.9750287 0 0 0 3.923373,-3.975029 V 18.39809 a 3.9233741,3.9750287 0 0 0 -3.923373,-3.975029 z M -103.42044,73.571487 V 31.992688 h 60.8123 v 41.578799 z"
         id="path17"
         style="stroke-width:1.97456" />
      <path
         fill="#000080"
         d="m -54.988581,51.837853 c 0,-10.081704 -8.371163,-18.266144 -18.682873,-18.266144 -10.311706,0 -18.682873,8.18444 -18.682873,18.266144 0,10.081698 8.371167,18.266141 18.682873,18.266141 10.31171,0 18.682873,-8.184443 18.682873,-18.266141"
         id="path289"
         sodipodi:nodetypes="csssc"
         style="stroke-width:0.0510314" />
      <path
         fill="#ffffff"
         d="m -62.776072,46.882241 c 0,-3.877765 -3.055236,-7.026378 -6.818007,-7.026378 -3.76277,0 -6.818013,3.148613 -6.818013,7.026378 0,3.877765 3.055243,7.026377 6.818013,7.026377 3.762771,0 6.818007,-3.148612 6.818007,-7.026377"
         id="path291"
         style="stroke-width:0.0652962" />
      <path
         fill="#000080"
         d="m -45.690096,38.339254 c 0,-3.072805 -2.401641,-5.567817 -5.359453,-5.567817 -2.957811,0 -5.359453,2.495012 -5.359453,5.567817 0,3.07281 2.401642,5.567822 5.359453,5.567822 2.957812,0 5.359453,-2.489759 5.359453,-5.567822"
         id="path293"
         style="stroke-width:0.0515345" />
    </g>
  </g>
</svg>
